<svg viewBox="0 0 140 140" xmlns="http://www.w3.org/2000/svg">
  <circle cx="70" cy="70" r="70" fill="#fdfaf5"/>
  <g transform="translate(19.79, -0.1)">
    <g transform="translate(2, 6) scale(0.19)">
      <g transform="translate(0.000000,677.000000) scale(0.100000,-0.100000)" fill="#85411C" stroke="none">
        <path d="M3070 6139 c-102 -19 -181 -41 -229 -64 -28 -14 -54 -25 -57 -25 -13
0 -141 -92 -184 -132 -186 -175 -351 -519 -414 -864 -57 -306 -68 -362 -88
-439 -66 -252 -221 -534 -412 -753 -135 -155 -255 -258 -486 -416 -179 -122
-230 -163 -349 -279 -159 -155 -244 -273 -343 -472 -173 -347 -204 -683 -93
-1010 40 -118 158 -327 230 -410 15 -16 47 -54 72 -83 83 -96 253 -210 388
-260 115 -43 200 -56 370 -56 170 1 244 11 420 58 57 15 239 91 334 139 75 38
93 63 40 54 -316 -57 -588 -43 -816 42 -302 112 -557 363 -647 636 -22 68 -46
209 -46 270 0 67 26 215 52 295 94 294 294 534 633 760 85 57 166 116 255 189
80 65 319 306 371 374 255 336 394 636 468 1017 6 30 22 114 36 185 50 258
140 502 250 675 111 174 290 319 469 380 82 28 310 80 351 80 35 0 98 21 89
30 -17 15 -190 60 -291 75 -110 16 -299 18 -373 4z"/>
      </g>
      <g transform="translate(0.000000,677.000000) scale(0.100000,-0.100000)" fill="#DFAE6B" stroke="none">
        <path d="M3535 6553 c-136 -16 -600 -114 -614 -130 -3 -3 21 -3 54 1 33 3 143
9 245 12 163 6 200 4 310 -15 426 -74 706 -285 811 -610 39 -124 50 -214 47
-396 l-2 -150 175 0 174 0 3 140 c9 410 -150 782 -415 971 -89 64 -219 119
-350 150 -86 21 -139 26 -258 28 -82 2 -163 1 -180 -1z M2849 2013 c-14 -3
-17 -33 -22 -236 -5 -209 -8 -242 -31 -331 -43 -160 -94 -266 -181 -376 -111
-140 -221 -227 -390 -310 -295 -145 -550 -178 -962 -125 -76 10 -246 59 -333
98 -117 51 -272 154 -364 242 -38 36 -71 63 -74 60 -8 -8 76 -141 154 -245 89
-118 240 -265 347 -338 145 -100 336 -176 532 -213 89 -17 376 -17 475 0 114
19 284 66 395 110 210 82 356 179 505 338 94 100 158 195 220 326 111 238 140
390 155 823 l6 171 -23 7 c-25 6 -383 6 -409 -1z"/>
      </g>
      <g transform="translate(0.000000,677.000000) scale(0.100000,-0.100000)" fill="#DFAE6B" stroke="none">
        <path d="M2866 5415 c-35 -33 -37 -95 -2 -130 35 -35 72 -42 111 -21 91 49 61
176 -40 176 -31 0 -49 -7 -69 -25z M2721 4993 c-53 -44 -40 -132 24 -159 45
-18 78 -10 111 29 51 60 6 147 -75 147 -22 0 -48 -8 -60 -17z M3003 4708 c-82
-21 -81 -150 0 -177 42 -14 76 -3 106 35 28 35 27 76 -4 112 -28 34 -56 42
-102 30z M2645 4550 c-41 -43 -40 -93 3 -131 93 -83 220 44 133 132 -41 41
-96 41 -136 -1z M2863 4140 c-91 -55 -80 -184 19 -236 38 -20 74 -17 119 8 90
50 90 189 -1 235 -37 19 -101 16 -137 -7z M2543 4115 c-88 -38 -78 -158 15
-182 36 -9 90 21 109 61 14 30 14 39 3 66 -22 53 -76 77 -127 55z M2731 3793
c-42 -21 -71 -67 -71 -115 0 -55 15 -84 57 -112 92 -63 213 -2 213 108 0 102
-105 165 -199 119z M2298 3753 c-52 -33 -59 -110 -15 -151 34 -31 62 -35 103
-16 49 24 70 71 51 117 -8 17 -21 38 -30 45 -26 22 -79 24 -109 5z M1269 2801
c-35 -35 -37 -70 -9 -116 32 -52 91 -60 139 -19 26 22 31 33 31 70 0 36 -5 50
-26 69 -39 36 -96 34 -135 -4z M1009 2421 c-21 -22 -29 -39 -29 -66 0 -27 8
-44 29 -66 22 -21 39 -29 66 -29 84 0 127 105 67 163 -40 38 -93 37 -133 -2z
M1355 2230 c-34 -22 -65 -74 -65 -108 0 -12 6 -37 14 -56 57 -137 256 -92 256
58 0 43 -4 53 -39 87 -34 35 -44 39 -87 39 -32 0 -60 -7 -79 -20z M998 1952
c-102 -52 -23 -216 83 -172 56 23 78 106 39 148 -12 12 -22 22 -23 22 -1 0
-16 4 -34 9 -24 7 -40 5 -65 -7z M2573 1922 c-34 -5 -73 -58 -73 -99 0 -43 45
-93 85 -93 40 0 81 26 95 59 29 72 -30 145 -107 133z M1282 1593 c-35 -17 -62
-58 -62 -92 0 -11 14 -36 31 -56 39 -44 83 -47 128 -9 26 22 31 33 31 70 0 36
-5 50 -26 69 -15 14 -30 25 -35 25 -4 0 -13 2 -21 5 -7 2 -28 -3 -46 -12z
M2471 1516 c-105 -58 -28 -219 82 -172 41 17 57 41 57 88 0 37 -12 56 -50 82
-29 19 -57 20 -89 2z M1648 1401 c-27 -24 -33 -36 -33 -71 0 -57 37 -90 100
-90 35 0 48 5 64 26 32 41 28 98 -8 135 -39 38 -80 39 -123 0z M2072 1385
c-16 -14 -33 -36 -36 -50 -10 -39 17 -89 57 -109 33 -15 40 -15 72 -2 48 20
71 72 55 122 -22 66 -94 85 -148 39z"/>
      </g>
    </g>
  </g>
</svg>